<?xml version="1.0" encoding="UTF-8" standalone="no"?>
<!DOCTYPE svg PUBLIC "-//W3C//DTD SVG 1.1//EN" "http://www.w3.org/Graphics/SVG/1.1/DTD/svg11.dtd">
<svg width="100%" height="100%" viewBox="0 0 1080 1080" version="1.1" xmlns="http://www.w3.org/2000/svg" xmlns:xlink="http://www.w3.org/1999/xlink" xml:space="preserve" xmlns:serif="http://www.serif.com/" style="fill-rule:evenodd;clip-rule:evenodd;stroke-linejoin:round;stroke-miterlimit:2;">
    <path d="M319.136,343.873C363.172,279.025 451.042,234.76 552.158,234.76C683.15,234.76 791.91,309.046 811.946,406.131C825.534,404.055 839.826,402.947 854.575,402.947C944.335,402.947 1017.21,443.986 1017.21,494.534C1017.21,510.611 1009.69,526.404 995.42,540.327L780.001,540.327L713.73,540.327L446.282,540.327L324.315,540.327L131.853,540.327C115.92,520.234 107.532,497.442 107.532,474.24C107.532,401.291 188.875,342.065 289.067,342.065C299.309,342.065 309.354,342.684 319.136,343.873Z" style="fill:rgb(200,234,248);"/>
    <clipPath id="_clip1">
        <path d="M319.136,343.873C363.172,279.025 451.042,234.76 552.158,234.76C683.15,234.76 791.91,309.046 811.946,406.131C825.534,404.055 839.826,402.947 854.575,402.947C944.335,402.947 1017.21,443.986 1017.21,494.534C1017.21,510.611 1009.69,526.404 995.42,540.327L780.001,540.327L713.73,540.327L446.282,540.327L324.315,540.327L131.853,540.327C115.92,520.234 107.532,497.442 107.532,474.24C107.532,401.291 188.875,342.065 289.067,342.065C299.309,342.065 309.354,342.684 319.136,343.873Z"/>
    </clipPath>
    <g clip-path="url(#_clip1)">
        <rect x="37.3" y="464.168" width="1042.7" height="185.221" style="fill:rgb(162,201,235);"/>
    </g>
    <path d="M312.457,329.096C360.14,264.696 449.528,220.76 552.158,220.76C684.81,220.76 794.982,294.221 822.544,390.642C832.92,389.53 843.628,388.947 854.575,388.947C911.98,388.947 962.784,405.12 994.34,429.356C1017.98,447.509 1031.21,470.32 1031.21,494.534C1031.21,514.056 1022.53,533.443 1005.2,550.349C1002.58,552.9 999.072,554.327 995.42,554.327L780.001,554.327L713.73,554.327L446.282,554.327L324.315,554.327L131.853,554.327C127.579,554.327 123.539,552.375 120.883,549.026C102.867,526.305 93.532,500.476 93.532,474.24C93.532,441.391 107.912,410.893 132.712,386.266C168.014,351.212 224.848,328.065 289.067,328.065C296.985,328.065 304.791,328.416 312.457,329.096ZM319.136,343.873C309.354,342.684 299.309,342.065 289.067,342.065C188.875,342.065 107.532,401.291 107.532,474.24C107.532,497.442 115.92,520.234 131.853,540.327L324.315,540.327L446.282,540.327L713.73,540.327L780.001,540.327L995.42,540.327C1009.69,526.404 1017.21,510.611 1017.21,494.534C1017.21,443.986 944.335,402.947 854.575,402.947C839.826,402.947 825.534,404.055 811.946,406.131C791.91,309.046 683.15,234.76 552.158,234.76C451.042,234.76 363.172,279.025 319.136,343.873Z"/>
</svg>
